<?xml version="1.0" encoding="UTF-8"?>
<svg id="Capa_1" data-name="Capa 1" xmlns="http://www.w3.org/2000/svg" viewBox="0 0 531.38 383.7">
  <defs>
    <style>
      .cls-1 {
        fill: #1e1e1e;
      }

      .cls-1, .cls-2, .cls-3, .cls-4, .cls-5, .cls-6, .cls-7, .cls-8, .cls-9, .cls-10, .cls-11, .cls-12 {
        stroke-width: 0px;
      }

      .cls-2, .cls-13 {
        fill: #000;
      }

      .cls-3 {
        fill: #f5f5f5;
      }

      .cls-13 {
        stroke: #fff;
        stroke-linecap: round;
        stroke-linejoin: round;
        stroke-width: 3px;
      }

      .cls-4 {
        fill: #f4f4f4;
      }

      .cls-5 {
        fill: #2c2c2c;
      }

      .cls-6 {
        fill: #010101;
      }

      .cls-7 {
        fill: #e2e2e2;
      }

      .cls-8 {
        fill: #f1f1f1;
      }

      .cls-9 {
        fill: #2d2d2d;
      }

      .cls-10 {
        fill: #ededed;
      }

      .cls-11 {
        fill: #fff;
      }

      .cls-12 {
        fill: #030303;
      }
    </style>
  </defs>
  <g>
    <g>
      <path class="cls-6" d="M523.36,382.2c-.18,0-.37,0-.57,0-8.92-.3-11.37-2.46-12.47-11.03-.56-4.4-2.03-8.61-3.62-12.89-2.32-6.29-3.06-11.3-2.42-16.26.35-2.71-.21-5.35-1.88-8.82-7.22-15-15.4-32-20.79-49.89-2.07-6.86-4.81-13.78-7.46-20.47-1.95-4.92-3.97-10.01-5.73-15.1-.78-2.27-8-5.38-12.46-5.38-1.03,0-1.56.17-1.78.28-.4.19-.57.27-.38,1.53,1.09,7.31.69,14.66.31,21.76-.35,6.56-.72,13.33.1,19.98,1.22,9.88.58,19.95-.04,29.69-.29,4.57-.59,9.29-.69,13.91-.06,2.65.04,4.37,1.85,5.91,2.78,2.36,3.02,5.86,3.02,8.95-.01,2.05-.06,4.1-.1,6.15-.13,5.74-.27,11.68.46,17.47.34,2.68-.37,5.17-1.99,7-1.77,2.01-4.47,3.11-7.6,3.11-.27,0-.55,0-.83-.03-2.73-.17-5.16-1.37-6.82-3.39-1.65-1.99-2.37-4.56-2.02-7.24.16-1.27.34-2.54.51-3.81.89-6.58,1.81-13.38,1.55-20.16-.3-7.69-2.08-15.27-3.81-22.6-.72-3.06-1.47-6.23-2.1-9.38-2.23-11.08-3.16-20.2-2.92-28.71.34-11.82-2.45-23.42-5.14-34.63-.62-2.56-1.23-5.12-1.81-7.68-.43-1.91-1.44-2.36-3.7-2.7l-2.55-.39c-4.27-.66-8.68-1.34-13.02-1.9-4.44-.57-8.35-2.41-12.14-4.19l-1.11-.52c-1.48-.69-2.92-1.54-3.47-3.07-.57-1.6.08-3.35.79-4.84,11.14-23.33,24.26-47.6,41.3-76.37,1.44-2.43,2.08-4.77,2.28-7.14-4.52,14.45-14.93,25.15-24.32,34.8-5.37,5.52-11.45,11.77-17.64,17.54-.74.69-1.27,1.68-1.82,2.73-1.11,2.08-2.49,4.66-6.1,5.44-.44.1-.88.11-1.22.11-.18,0-.9-.02-1.08-.02-1.15,0-1.63.21-2.05.9-.44.72-1.12,1.14-1.86,1.14-.6,0-1.17-.27-1.61-.76-.48-.54-.78-1.31-.83-2.11-.34.17-.73.3-1.19.36-.06,0-.12.01-.18.01-.35,0-.7-.12-.97-.36-.32-.27-.51-.66-.53-1.08-.06-1.46-.07-2.88-.02-4.23,0-.11.02-.22.05-.33,1.5-5.67,4.47-10.03,9.07-13.35,10.04-7.22,16.3-14.4,20.31-23.26,9.58-21.17,16.54-41.5,21.3-62.16,1.67-7.25,4.91-12.37,10.21-16.1,2.65-1.87,2.83-6.03,2.18-9.02-1.37-6.22-.18-12.03.97-17.65.68-3.33,1.32-6.47,1.48-9.71.12-2.44,1-4.76,1.85-7,2.57-6.77,6.74-14.64,16.55-16.1.45-.07.93-.1,1.41-.1,6.96,0,16.47,6.99,19.57,14.38,5.39,12.85,9.16,24.43,11.54,35.4,1.73,7.97,4.97,13.38,10.2,17.04,3.15,2.2,3.71,5.67,3.87,8.09.42,6.93.86,13.85,1.3,20.77,1.35,21.27,2.74,43.26,3.69,64.92.16,3.55-.15,7.16-.44,10.64-.33,3.95-.67,8.03-.33,11.97.13,1.52.39,3.02.66,4.6.66,3.82,1.34,7.77.13,12.05-1.13,4-2.77,7.93-7.08,9.59-1.82.69-1.88,1.08-1.4,2.97.48,1.9.82,3.85,1.15,5.72l.2,1.13c.02.14.06.28.09.44.21.99.77,3.63-1.55,4.18-3.06.73-2.91,1.99-2.26,5,.17.79.34,1.6.4,2.39,1.01,14.02,3.65,25.41,8.33,35.85,4.37,9.77,5.79,20.41,7.15,30.69.46,3.45.93,7.01,1.51,10.46,1.4,8.35,4.19,16.31,6.89,24.01.85,2.42,1.85,4.86,2.81,7.21,2.04,4.98,4.14,10.13,5.13,15.66.03.08.05.16.06.25.44,2.61.12,4.51-.99,5.82-1.08,1.28-2.83,1.9-5.35,1.9Z"/>
      <path class="cls-11" d="M458.07,20.53c6.29,0,15.28,6.53,18.19,13.46,4.77,11.38,8.83,23.02,11.46,35.14,1.55,7.14,4.54,13.57,10.81,17.95,2.36,1.65,3.06,4.27,3.23,6.96,1.75,28.55,3.73,57.08,4.99,85.66.33,7.48-1.42,15.12-.76,22.68.47,5.36,2.43,10.49.84,16.11-1.08,3.83-2.56,7.21-6.18,8.6-2.77,1.05-2.91,2.4-2.32,4.74.56,2.22.92,4.49,1.32,6.75.18,1.01.72,2.65-.33,2.9-5.87,1.41-3.23,5.78-3.01,8.95.9,12.54,3.22,24.67,8.46,36.36,5.74,12.83,6.26,27.07,8.55,40.79,1.4,8.37,4.17,16.33,6.95,24.26,2.68,7.62,6.53,14.81,7.92,22.89h0s.02,0,.02,0c.71,4.2-.75,5.98-4.85,5.98-.17,0-.34,0-.52,0-8.07-.27-10.01-1.77-11.03-9.72-.58-4.59-2.1-8.91-3.7-13.22-1.85-5.02-3.04-10.15-2.34-15.55.45-3.48-.53-6.57-2.02-9.66-7.78-16.17-15.45-32.24-20.7-49.67-3.61-11.97-9.06-23.63-13.21-35.62-1.09-3.18-9.09-6.39-13.87-6.39-.96,0-1.79.13-2.41.41-1.53.71-1.41,2-1.24,3.12,2.07,13.87-1.32,27.71.41,41.7,1.77,14.35-.43,28.92-.75,43.39-.06,2.76.04,5.1,2.38,7.09,2.31,1.96,2.49,4.93,2.49,7.81-.04,7.93-.63,15.86.37,23.8.63,5.03-2.95,8.42-8.1,8.42-.24,0-.49,0-.74-.02-4.72-.29-8.06-4.21-7.45-8.94,1.04-8.04,2.39-16.02,2.07-24.22-.43-11.06-3.79-21.52-5.94-32.22-1.89-9.39-3.16-18.78-2.89-28.37.42-14.68-3.8-28.6-6.99-42.69-.65-2.89-2.61-3.5-4.94-3.85-5.2-.8-10.39-1.63-15.6-2.3-4.62-.59-8.67-2.65-12.81-4.58-2.95-1.38-3.56-2.55-1.96-5.91,12.47-26.12,26.51-51.38,41.24-76.25,3.8-6.42,2.47-12.41,1.64-18.84h-.02c-1.63,19.16-13.69,32.01-26.02,44.69-5.77,5.93-11.54,11.85-17.59,17.49-2.56,2.39-2.63,6.81-7.22,7.8-.27.06-.58.07-.9.07-.34,0-.71-.02-1.08-.02-1.19,0-2.45.17-3.33,1.61-.18.3-.38.42-.58.42-.54,0-1.03-.96-.92-1.88.14-1.17,1.13-2.23.39-3.71-1.5.43-1.28,2.85-3.27,3.09-.06-1.37-.07-2.74-.02-4.11,1.34-5.05,3.98-9.26,8.5-12.52,8.77-6.31,16.17-13.62,20.8-23.86,9.12-20.16,16.43-40.87,21.4-62.44,1.43-6.23,4.17-11.38,9.61-15.21,3.4-2.4,3.48-7.37,2.78-10.57-2.08-9.42,2.05-17.97,2.48-26.97.11-2.23.97-4.48,1.78-6.62,2.8-7.38,6.87-13.81,15.34-15.07.38-.06.78-.08,1.19-.08M458.07,17.53s0,0,0,0c-.56,0-1.11.04-1.63.12-10.58,1.57-15.02,9.9-17.71,16.97l-.03.07c-.85,2.24-1.81,4.79-1.94,7.46-.15,3.13-.78,6.21-1.45,9.48-1.18,5.77-2.4,11.75-.96,18.28.45,2.04.62,5.92-1.58,7.47-5.62,3.95-9.05,9.35-10.8,16.99-4.74,20.56-11.67,40.8-21.21,61.87-3.89,8.61-10.01,15.6-19.82,22.66-4.9,3.53-8.05,8.17-9.65,14.19-.06.22-.09.44-.1.66-.05,1.4-.04,2.87.02,4.35.04.83.42,1.62,1.06,2.16.54.46,1.23.71,1.94.71.1,0,.2,0,.29-.01.2.46.46.89.78,1.25.73.82,1.7,1.27,2.73,1.27,1.28,0,2.42-.68,3.14-1.87.05-.09.09-.12.09-.12,0,0,0,0,0,0,0,0,.15-.05.68-.05.17,0,.33,0,.49,0,.2,0,.4,0,.59,0,.41,0,.95-.02,1.54-.14,4.3-.93,5.92-3.98,7.11-6.2.52-.97.97-1.81,1.52-2.33,6.21-5.79,12.05-11.79,17.69-17.59,2.16-2.22,4.38-4.5,6.56-6.87-10.97,19.37-20.14,36.87-28.26,53.88-.85,1.78-1.61,3.87-.85,6,.74,2.05,2.56,3.14,4.24,3.92l1.11.52c3.89,1.83,7.92,3.72,12.59,4.32,4.32.56,8.73,1.24,12.99,1.9l2.54.39c2.2.33,2.27.66,2.47,1.54.58,2.58,1.21,5.19,1.82,7.71,2.79,11.63,5.43,22.62,5.1,34.23-.24,8.62.69,17.85,2.95,29.05.64,3.17,1.39,6.35,2.11,9.43,1.79,7.6,3.48,14.78,3.77,22.32.26,6.65-.61,13.09-1.54,19.9-.17,1.27-.34,2.54-.51,3.82-.4,3.09.44,6.07,2.35,8.39,1.94,2.34,4.74,3.74,7.89,3.93.31.02.62.03.92.03,3.57,0,6.67-1.28,8.73-3.62,1.91-2.16,2.74-5.06,2.35-8.18-.72-5.68-.59-11.3-.45-17.24.05-2.02.09-4.1.1-6.17,0-2.67,0-7.1-3.55-10.11-1.21-1.03-1.38-2.03-1.32-4.74.1-4.59.4-9.29.69-13.85.63-9.81,1.27-19.96.04-29.98-.81-6.51-.44-13.22-.09-19.71.39-7.18.79-14.61-.33-22.07,0-.02,0-.03,0-.05.17-.02.4-.04.69-.04,4.17,0,10.37,2.9,11.04,4.39,1.77,5.1,3.79,10.21,5.75,15.15,2.64,6.66,5.37,13.54,7.42,20.34,5.42,18,13.63,35.05,20.87,50.1,1.54,3.19,2.06,5.57,1.75,7.97-.88,6.76,1.01,12.92,2.5,16.97,1.56,4.2,3,8.32,3.54,12.56,1.19,9.25,4.31,12.02,13.91,12.34.21,0,.42.01.62.01,2.98,0,5.11-.8,6.49-2.44,1.41-1.67,1.84-3.97,1.32-7.04-.02-.13-.05-.25-.09-.37-1.02-5.65-3.14-10.83-5.19-15.85-.96-2.34-1.95-4.76-2.79-7.15-2.68-7.63-5.44-15.53-6.82-23.76-.57-3.43-1.04-6.98-1.5-10.42-1.38-10.39-2.81-21.13-7.27-31.1-4.61-10.27-7.21-21.51-8.21-35.35-.06-.89-.25-1.76-.43-2.59q-.61-2.8,1.15-3.23c1.7-.4,3.55-1.77,2.66-5.95-.03-.14-.06-.27-.08-.39l-.2-1.12c-.33-1.91-.67-3.88-1.17-5.84-.11-.45-.16-.73-.18-.9.13-.07.33-.17.66-.3,4.96-1.9,6.83-6.42,8-10.59,1.3-4.61.59-8.73-.09-12.71-.27-1.55-.52-3.01-.65-4.47-.33-3.81-.01-7.65.33-11.71.3-3.53.6-7.19.44-10.84-.96-21.68-2.35-43.69-3.69-64.97-.44-6.91-.87-13.83-1.3-20.75-.1-1.58-.4-6.37-4.51-9.24-4.9-3.42-7.95-8.55-9.6-16.13-2.4-11.06-6.2-22.73-11.62-35.66-3.36-8.01-13.35-15.3-20.96-15.3h0Z"/>
    </g>
    <g>
      <path class="cls-2" d="M288.89,378.64c-.46,0-.91-.1-1.34-.3-.82-.38-1.56-.78-2.29-1.17-1.68-.91-3.28-1.77-5.47-2.14-1.63-.27-3.23-.7-4.93-1.16-2.98-.8-6.06-1.63-9.54-1.63-.58,0-1.14-.33-1.39-.85-.25-.52-.22-1.13.14-1.58,1.46-1.83,2.08-3.37,1.85-4.56-.32-1.67-2.39-3.04-4.37-4.17-2.07-1.19-3.67-2.94-4.64-4.19-4.95-6.34-4.54-10.01,1.71-15.08.27-.22.53-.44.79-.66.63-.54,1.28-1.09,2.02-1.57,17.14-11.16,30.43-27.3,40.64-49.36.13-.29.29-.6.45-.92.39-.76.78-1.55.78-2.12.04-8.74.76-17.58,1.46-26.12,1.18-14.39,2.39-29.27.33-43.93-.43-3.04-.9-5.3-3.07-6.82-4.19-2.92-7.16-6.88-10.03-10.72-2.08-2.77-4.04-5.39-6.43-7.66-2.73-2.58-.64-5.04.15-5.97,6.56-7.67,6.96-15.95,1.29-26.87-2.23-4.29-3.67-9-5.07-13.56l-.53-1.73c-2.68-8.66-2.78-16.7-.3-24.57,2.29-7.23,3.04-14.93,3.7-21.71,1.02-10.64,4.15-20.58,7.37-29.74,2.51-7.13,8.93-9.39,14.89-10.66,4.03-.86,7.59-2.6,11.19-4.47,2.36-1.22,2.59-2.48,2.52-3.44-.13-1.88-1.45-3.29-2.93-4.73-.37.63-1,1.27-2.08,1.27-.29,0-.58-.05-.88-.15-.6-.2-1.01-.76-1.02-1.39-.07-4.02-1.15-7.83-2.28-11.86-1.07-3.79-2.17-7.71-2.39-11.85-.47-9.29,1.21-11.99,9.49-15.19.36-.14.74-.34,1.14-.55.26-.14.53-.28.8-.41,3.83-1.89,7.51-2.85,10.92-2.85,8.62,0,14.77,6.07,16.85,16.65.28,1.4.61,2.84.93,4.23,1.59,6.84,3.23,13.92-.46,21.29-.26.51-.78.83-1.34.83-.09,0-.18,0-.27-.03-.14-.03-.28-.06-.4-.1-.08.19-.18.39-.31.57-.28.42-.75.66-1.25.66-.03,0-.07,0-.1,0-.53-.04-1.01-.35-1.25-.83l-.1-.21c-2.23,3.48-2.9,7.03-1.88,10.18,1.26,3.86,4.88,6.75,10.2,8.15,10.07,2.65,16.09,8.69,17.89,17.93,1,5.13,4.02,8.97,7.21,13.05,1.82,2.33,3.71,4.73,5.2,7.4,3.43,6.17,3.19,11.56-.79,17.48-5.07,7.54-10.47,15.42-16.52,24.09-1.22,1.76-1.26,3.51-1.31,5.72-.01.57-.03,1.15-.06,1.75-.32,5.74,2.53,10.14,5.28,14.39.89,1.37,1.8,2.78,2.58,4.19,3.75,6.84,5.1,13.88,4.24,22.15-.09.91-.15,1.84-.18,2.86,0,.12-.02.23-.05.34-.21.8-.4,1.64-.55,2.53.03.02.07.05.1.08.32.27.51.66.53,1.08.18,3.99.78,8.05,1.36,11.97.9,6.08,1.84,12.37,1.27,18.75-.14,1.62.49,3.89,1.58,5.63,8.5,13.57,12.59,28.87,16.55,43.66,1.35,5.03,2.74,10.24,4.28,15.28,2.85,9.31,5.31,18.89,7.69,28.16,1.22,4.75,2.48,9.67,3.78,14.49,1,3.72,1.71,7.36-.72,11.04-.54.82-.38,1.69-.04,3.17.25,1.11.54,2.36.38,3.77-.05.46-.31.87-.71,1.11-.24.15-.51.22-.78.22-.18,0-.36-.03-.53-.1-1.5-.57-2.98-.85-4.53-.85-3.4,0-6.58,1.34-9.94,2.75-2.02.85-4.11,1.73-6.28,2.31-.62.17-.92.32-1.06.41.43,1.39.83,3.31-.17,4.68-.94,1.29-2.54,1.29-3.06,1.29-.59,0-1.17-.07-1.74-.13-.46-.05-.89-.1-1.23-.1h-.29c-6.12,0-10.81-1.75-14.77-5.51-2.12-2.02-7.04-3.27-12.83-3.27-6.23,0-11.76,1.44-14.08,3.68-3.82,3.68-8.13,5.39-13.55,5.39-3.36,0-6.75-.65-10.21-1.38-2.81-.59-3.03-2.71-3.17-3.98-.03-.23-.05-.47-.09-.7-.18-1.04-.25-2.07-.32-3.07-.12-1.78-.23-3.46-.98-4.97-.69-1.41-1.26-1.53-1.78-1.53-.18,0-.38.02-.6.06-1.78.35-1.88.96-1.84,1.86.02.46-.04.89-.09,1.27-.03.23-.08.58-.06.69,3.38,12.33-4.67,17.08-11.77,21.27-1.27.75-2.58,1.52-3.8,2.32l-.1.07c-.68.45-1.52,1-2.61,1ZM349.39,89.63c-.02.12,0,.36.05.87.04.35.08.71.08,1.04,0,.26-.02.53-.04.8,0,.06,0,.12-.01.18.1-.15.21-.33.32-.57.02-.04.04-.07.06-.11.13-.34.3-1.08-.46-2.2Z"/>
      <path class="cls-11" d="M331.53,3.01c7.71,0,13.39,5.37,15.38,15.44,1.59,8.07,4.79,16.2.6,24.56-1.45-.27.09-2.22-1.1-3.05-1.45,1.03-.27,2.88-1.13,4.16-.41-.83-.79-1.6-1.2-2.43-7.78,9.51-4.07,19.58,7.69,22.66,8.77,2.31,15,7.55,16.8,16.77,1.68,8.58,8.61,13.78,12.57,20.89,3.36,6.04,2.7,10.82-.72,15.91-5.43,8.08-10.94,16.09-16.51,24.07-1.83,2.64-1.47,5.2-1.64,8.25-.46,8.19,4.91,13.68,8.04,19.39,3.95,7.21,4.8,14.14,4.06,21.27-.1.99-.16,1.98-.19,2.97-.35,1.31-.61,2.68-.8,4.1h0v.04c.16.02.31.02.45.02s.26,0,.38-.02c.46,10.24,3.55,20.22,2.64,30.52-.19,2.13.64,4.7,1.8,6.56,11.26,17.98,14.61,38.78,20.67,58.58,4.3,14.05,7.63,28.4,11.46,42.6.91,3.37,1.59,6.62-.52,9.82-1.55,2.34.43,4.76.11,7.59-1.76-.67-3.44-.94-5.06-.94-5.89,0-11.03,3.62-16.61,5.11-1.05.28-2.56.85-2.14,2.19,1.11,3.49-.12,4.14-1.76,4.14-.98,0-2.1-.23-2.97-.23-.01,0-.03,0-.04,0-.08,0-.17,0-.25,0-5.12,0-9.67-1.23-13.74-5.1-2.6-2.47-8.17-3.68-13.86-3.68-6.09,0-12.31,1.39-15.12,4.1-3.94,3.79-8.14,4.97-12.51,4.97-3.22,0-6.54-.64-9.9-1.35-2.13-.45-1.83-2.01-2.09-3.48-.5-2.81-.1-5.74-1.43-8.44-.74-1.51-1.66-2.36-3.13-2.36-.28,0-.57.03-.89.09-1.9.37-3.16,1.23-3.05,3.41.04.76-.29,1.59-.1,2.28,3.64,13.3-6.95,16.7-14.94,21.94-.61.4-1.21.82-1.89.82-.23,0-.47-.05-.72-.16-2.65-1.22-4.7-2.85-8.13-3.42-4.42-.74-9.04-2.81-14.72-2.81-.03,0-.05,0-.08,0,4.51-5.67,1.46-8.46-2.95-10.97-1.6-.92-3.05-2.33-4.2-3.81-4.46-5.71-4.09-8.48,1.47-12.99.89-.72,1.73-1.52,2.68-2.14,18.93-12.32,31.8-29.71,41.18-49.99.54-1.19,1.37-2.44,1.37-3.67.1-23.43,5.09-46.72,1.77-70.26-.46-3.27-1.02-5.97-3.7-7.84-6.88-4.79-10.36-12.63-16.28-18.24-1.7-1.61-.57-2.93.27-3.92,7.85-9.17,6.64-18.56,1.47-28.52-2.44-4.7-3.92-9.94-5.5-15.04-2.42-7.82-2.81-15.71-.3-23.68,2.26-7.14,3.04-14.61,3.76-22.02.98-10.2,3.93-19.84,7.29-29.39,2.25-6.4,7.98-8.45,13.79-9.69,4.18-.89,7.86-2.68,11.57-4.6,2.01-1.04,3.49-2.52,3.33-4.87-.2-2.87-2.42-4.76-4.26-6.56-.23-.22-.4-.32-.55-.32-.66,0-.59,2.02-1.7,2.02-.12,0-.25-.02-.39-.07-.15-8.17-4.25-15.55-4.67-23.76-.43-8.48.71-10.69,8.53-13.72.7-.27,1.35-.67,2.04-1,3.68-1.81,7.14-2.7,10.27-2.7M348.57,94.54c1.35,0,2.09-.9,2.58-1.97h0c.6-1.34.24-2.66-.56-3.82-.32-.46-.79-.73-1.26-.73-.24,0-.48.07-.7.22-1.21.82-.62,2.17-.62,3.3,0,.99-.34,2.07.46,3,.03,0,.06,0,.09,0M331.53,0h0c-3.64,0-7.55,1.01-11.6,3.01-.26.12-.54.27-.82.42-.36.19-.69.36-.97.47-9.47,3.67-10.92,7.38-10.45,16.67.22,4.31,1.35,8.31,2.44,12.18,1.11,3.93,2.16,7.65,2.23,11.48.02,1.27.84,2.38,2.04,2.79.45.15.91.23,1.36.23.79,0,1.49-.21,2.09-.62.85.94,1.36,1.75,1.42,2.68.03.4.07,1.07-1.72,2-3.51,1.82-6.97,3.51-10.82,4.33-6.37,1.36-13.24,3.8-16,11.63-3.25,9.25-6.41,19.3-7.45,30.1-.65,6.71-1.39,14.32-3.63,21.4-2.54,8.07-2.44,16.63.29,25.47.18.57.35,1.15.53,1.72,1.42,4.62,2.88,9.4,5.17,13.81,5.42,10.44,5.09,17.97-1.09,25.19-3.15,3.72-1.77,6.43-.05,8.05,2.3,2.18,4.22,4.75,6.26,7.47,2.94,3.93,5.98,8,10.37,11.05,1.55,1.08,1.99,2.6,2.44,5.8,2.04,14.49.83,29.29-.34,43.6-.7,8.57-1.43,17.44-1.46,26.23-.02.27-.4,1.01-.62,1.46-.17.33-.33.66-.48.98-10.07,21.78-23.19,37.72-40.08,48.72-.82.53-1.54,1.15-2.17,1.69-.25.21-.5.43-.76.64-6.85,5.56-7.38,10.21-1.95,17.17,1.05,1.36,2.79,3.26,5.07,4.56.85.49,3.41,1.94,3.65,3.16.14.71-.43,1.93-1.55,3.34-.72.9-.86,2.14-.35,3.18.5,1.03,1.55,1.69,2.7,1.69h.08c3.28,0,6.27.8,9.16,1.58,1.66.45,3.37.91,5.07,1.19,1.95.32,3.36,1.09,5,1.97.74.4,1.51.82,2.37,1.21.64.29,1.3.44,1.97.44,1.54,0,2.68-.75,3.44-1.25l.1-.06c1.19-.78,2.43-1.51,3.74-2.28,7.15-4.22,16.04-9.46,12.51-22.75.01-.09.03-.2.04-.29.06-.4.14-.95.11-1.57,0-.05,0-.1,0-.14.12-.05.31-.11.63-.17.16-.03.26-.04.32-.04,0,0,0,0,0,0,.07.07.22.26.42.68.62,1.25.72,2.72.83,4.41.07,1.04.14,2.11.34,3.24.03.2.05.4.07.6.13,1.22.47,4.47,4.35,5.29,3.55.75,7.02,1.42,10.52,1.42,5.75,0,10.52-1.9,14.59-5.81,1.99-1.92,7.36-3.26,13.04-3.26,5.26,0,9.99,1.15,11.79,2.85,4.26,4.04,9.28,5.93,15.81,5.93h.27s0,0,0,0c.27,0,.68.05,1.08.09.58.07,1.24.14,1.91.14,1.91,0,3.35-.64,4.28-1.9,1.05-1.43,1.04-3.14.74-4.62,2.14-.6,4.17-1.46,6.13-2.28,3.22-1.36,6.26-2.63,9.36-2.63,1.36,0,2.67.24,4,.75.34.13.71.2,1.07.2.54,0,1.09-.15,1.56-.44.79-.48,1.32-1.3,1.42-2.22.19-1.66-.15-3.11-.41-4.27-.29-1.26-.36-1.73-.18-2,3-4.55,1.74-9.19.92-12.26-1.3-4.8-2.56-9.72-3.78-14.47-2.38-9.28-4.85-18.89-7.71-28.23-1.53-5.01-2.92-10.2-4.27-15.22-3.99-14.9-8.11-30.31-16.73-44.07-.91-1.46-1.47-3.4-1.35-4.7.58-6.56-.37-12.94-1.28-19.11-.58-3.88-1.17-7.9-1.35-11.81-.03-.56-.21-1.1-.52-1.55.12-.58.25-1.15.39-1.68.06-.22.09-.45.1-.68.03-.98.09-1.88.18-2.76.89-8.58-.51-15.89-4.41-23.01-.8-1.46-1.73-2.9-2.63-4.29-2.74-4.24-5.34-8.24-5.04-13.49.03-.62.05-1.22.06-1.8.05-2.31.12-3.57,1.05-4.91,6.05-8.67,11.46-16.55,16.53-24.11,4.27-6.36,4.54-12.41.85-19.04-1.55-2.78-3.47-5.23-5.33-7.6-3.08-3.93-5.99-7.64-6.92-12.41-1.9-9.72-8.46-16.32-18.98-19.09-4.81-1.26-8.06-3.8-9.16-7.16-.73-2.26-.43-4.79.84-7.36.27.1.56.17.86.19.07,0,.13,0,.2,0,.91,0,1.76-.41,2.33-1.11,1.08-.04,2.08-.66,2.58-1.65,3.94-7.85,2.15-15.53.58-22.3-.33-1.44-.65-2.81-.92-4.18C347.62,6.52,340.94,0,331.53,0h0Z"/>
    </g>
    <g>
      <path class="cls-2" d="M373.83,199.49c-.2,0-.41-.01-.63-.04-.82-.11-1.4-.86-1.3-1.68.19-1.46.46-2.89.83-4.26.16-.66.75-1.16,1.46-1.16.41,0,.8.17,1.08.46.28.29.44.69.42,1.1-.05,1.29-.04,2.64.02,3.99.03.76-.51,1.43-1.26,1.55-.2.03-.41.05-.63.05Z"/>
      <path class="cls-11" d="M374.2,193.85h0M374.2,193.85c-.05,1.38-.04,2.75.02,4.11-.12.02-.26.03-.39.03s-.28-.01-.44-.03c.18-1.42.45-2.79.8-4.1h0s.01-.01.01-.01M374.21,190.85h-.02c-1.44,0-2.64,1.01-2.93,2.37-.37,1.41-.66,2.88-.84,4.37-.21,1.64.95,3.14,2.59,3.35.28.04.56.05.82.05.29,0,.59-.02.87-.07,1.5-.24,2.59-1.57,2.52-3.09-.06-1.27-.06-2.53-.02-3.75,0-.08,0-.15,0-.23,0-1.66-1.34-3-3-3h0ZM374.2,196.85h0,0Z"/>
    </g>
  </g>
  <g>
    <path class="cls-2" d="M54.86,68.68c-1.12,0-2.29-.33-3.48-.99-3.99-2.21-6.95-4.84-9.05-8.02-.09-.13-.15-.28-.19-.43-.19-.69-.13-1.38.15-2-.29-1.57-.87-3.11-1.48-4.72-.98-2.59-1.98-5.26-1.86-8.32-.09-.06-.23-.13-.33-.19l-.21-.12c-4.03-2.3-5.52-6.77-3.99-11.95.69-2.31.59-4.32-.34-6.91-2.32-6.52-.28-12.33,1.76-16.67.36-.77,1.46-3.08,3.64-3.42,1.72-.26,3.46-.79,5.15-1.3,2.14-.65,4.35-1.32,6.63-1.5.72-.06,1.44-.09,2.14-.09,6.42,0,11.92,2.43,15.48,6.85,3.77,4.68,5.03,11.07,3.53,18.01-.27,1.24.09,2.53.46,3.9.46,1.7.99,3.63.39,5.75-.07.25-.06.68-.04,1.09.03,1.04.09,2.62-1.29,3.67-2.29,1.73-2.52,4.14-2.79,6.92-.13,1.3-.26,2.63-.61,3.95-.76,6.17-4.75,10.06-8.62,13.83l-.85.83c-1.24,1.21-2.65,1.83-4.2,1.83Z"/>
    <path class="cls-11" d="M53.4,3.55c12.69,0,20.36,10.03,17.55,23.04-.71,3.3,1.81,6.24.87,9.56-.37,1.3.4,3.06-.8,3.98-4.04,3.06-2.85,7.79-3.97,11.77-.71,6.14-5.02,9.93-9.04,13.88-.96.94-2.02,1.4-3.14,1.4-.87,0-1.8-.27-2.76-.81-3.42-1.9-6.36-4.26-8.53-7.54-.13-.47-.04-.9.27-1.28h.01c-.66-4.59-3.64-8.58-3.41-13.39.04-.92-.58-1.17-1.3-1.58-4.13-2.36-4.33-6.71-3.29-10.22.88-2.97.53-5.34-.36-7.84-1.96-5.51-.64-10.54,1.7-15.53.56-1.18,1.35-2.39,2.51-2.57,3.99-.6,7.78-2.48,11.67-2.79.69-.06,1.36-.08,2.02-.08M53.4.55h0c-.74,0-1.51.03-2.27.09-2.44.19-4.73.89-6.94,1.56-1.71.52-3.33,1.01-4.93,1.25-2.98.46-4.33,3.31-4.77,4.25-2.16,4.61-4.32,10.79-1.82,17.82.68,1.92,1,3.67.31,5.98-1.72,5.8-.05,10.84,4.46,13.55.08,2.98,1.07,5.62,1.96,7.99.53,1.4,1.03,2.74,1.33,4.06-.26.8-.28,1.67-.04,2.52.08.3.22.59.39.86,2.24,3.39,5.38,6.17,9.58,8.51,1.42.79,2.83,1.18,4.21,1.18,1.92,0,3.73-.78,5.24-2.25l.85-.83c3.84-3.75,8.19-7.99,9.05-14.62.37-1.39.5-2.76.63-4.09.28-2.9.53-4.6,2.2-5.87,2-1.53,1.93-3.73,1.89-4.92,0-.22-.02-.54,0-.67.7-2.51.09-4.73-.39-6.52-.34-1.24-.63-2.31-.44-3.19,1.6-7.38.24-14.23-3.83-19.26-3.86-4.78-9.77-7.41-16.65-7.41h0Z"/>
  </g>
  <g>
    <path class="cls-2" d="M193.46,63.04c-4.79,0-9.33-1.71-12.46-4.69-1.93-1.84-1.76-3.95-1.63-5.49.06-.79.12-1.49-.08-2.04-.06-.09-.11-.18-.15-.28-.18-.44-.37-.87-.56-1.3-.98-2.23-1.99-4.55-1.73-7.37.03-.35.02-.58-.52-1.16-4.43-4.69-5.07-9.19-1.95-13.75h0s.17-.46-.18-1.93c-1.54-6.55-1.86-13.97,7.36-19.34,4.98-2.9,8.91-4.2,12.74-4.2,3.35,0,6.67,1.02,10.17,3.13,2.03,1.22,4.85,3.22,5.96,6.47,2.77,8.07,2.6,16.82,2.22,24.39-.14,2.85-1.62,5.95-3.05,8.95-.73,1.53-1.49,3.11-2.04,4.6-.52,1.41-.83,2.33-.54,3.36,1.48,3.18-.74,5.14-2.08,6.32l-.39.34c-2.8,2.57-6.75,3.98-11.1,3.98Z"/>
    <path class="cls-11" d="M194.32,3c3.01,0,6.06.9,9.4,2.91,2.32,1.4,4.45,3.15,5.31,5.67,2.65,7.73,2.53,16.02,2.14,23.83-.19,3.93-3.36,8.65-5,13.1-.57,1.53-1.03,2.86-.54,4.42,1.2,2.45-.66,3.73-2.07,5.01-2.65,2.43-6.35,3.59-10.09,3.59-4.21,0-8.48-1.47-11.42-4.27-2.43-2.31-.33-5.03-1.49-7.31v.02h-.02c-1.05-2.56-2.45-5.01-2.18-7.96.08-.87-.15-1.5-.91-2.32-3.25-3.44-4.96-7.28-1.81-11.88.5-.72.28-2.13.04-3.13-1.74-7.41-1.04-13.21,6.66-17.69,4.32-2.52,8.13-3.99,11.98-3.99M194.32,0c-4.11,0-8.27,1.36-13.49,4.4-10.13,5.9-9.64,14.3-8.07,20.97.13.56.17.9.18,1.09-3.27,5.06-2.49,10.2,2.33,15.3.04.04.07.08.09.1-.25,3.17.87,5.73,1.86,7.99.18.42.37.84.54,1.27.05.11.1.22.16.33.05.28,0,.86-.04,1.3-.13,1.63-.36,4.37,2.1,6.7,3.4,3.24,8.32,5.1,13.49,5.1,4.72,0,9.03-1.56,12.11-4.38.11-.1.24-.21.36-.32,1.31-1.15,4.34-3.82,2.51-7.94-.11-.5.05-1.07.53-2.33.53-1.44,1.24-2.91,1.99-4.48,1.5-3.13,3.05-6.37,3.2-9.52.38-7.7.56-16.62-2.3-24.95-1.27-3.71-4.37-5.92-6.6-7.27-3.74-2.25-7.32-3.35-10.95-3.35h0Z"/>
  </g>
  <g>
    <path class="cls-9" d="M191.88,136c-2.56,0-3.15-2.49-3.46-3.82-.09-.4-.18-.77-.28-1.03-3.86-9.64-7.69-19.31-11.51-28.98-3.28-8.29-6.56-16.58-9.86-24.85-.98-2.44-.27-4.15.65-5.63,1.12-1.81,2.21-3.7,3.25-5.53,1.3-2.27,2.65-4.62,4.1-6.87.57-.88.79-1.82,1.04-2.92.11-.48.22-.96.37-1.43.05-.16.12-.32.22-.45l1.02-1.4c.13-.17.29-.32.47-.42.73-.41,1.36-.61,1.95-.61,1.97,0,2.38,1.92,2.55,2.74.04.2.08.4.14.58.71,2.07.72,4.13.72,6.13,0,1.62,0,3.15.39,4.58,2.78,10.48,4.88,21.43,6.41,33.46l.04.31c.13,1.02.27,2.07.32,3.15.86.15,1.55.49,2.05,1.02,1.02,1.09.94,2.57.89,3.65-.02.34-.03.65-.02.89,0,0,0,0,0,.02,1.24-4.89,2.14-10.02,3.02-14.99.55-3.14,1.13-6.39,1.78-9.57l.21-1.01c.79-3.87,1.61-7.87,3.4-11.73,1.11-2.38,1.26-5.09,1.43-7.95.1-1.76.2-3.58.54-5.36.05-.28.08-.62.1-.98.09-1.35.25-3.85,3.23-4.54.11-.03.22-.04.34-.04.35,0,.69.12.96.35l1.95,1.64c.39.27.64.72.64,1.22,0,.05,0,.12,0,.17-.38,3.51,1.63,6.44,3.57,9.29l.58.85c4.88,7.26,2.79,13.62.45,19.01-4.74,10.91-9.38,22.08-13.87,32.89-1.77,4.27-3.55,8.54-5.33,12.8-.09.2-.18.39-.29.58-.23.36-.4.86-.58,1.33-.48,1.33-1.21,3.33-3.39,3.44-.03,0-.15,0-.18,0Z"/>
    <path class="cls-11" d="M179.84,53.56c1.01,0,.97,1.4,1.27,2.31,1.19,3.45.16,7.15,1.08,10.61,2.9,10.94,4.94,22.04,6.37,33.26.22,1.7.46,3.36.32,5.07,0,.1-.21.51.06.51.05,0,.11-.01.2-.04.12-.04.13-.57.3-.85,3.22.03,2.27,2.61,2.39,4.25.36,4.92-1.34,9.88.25,14.79.04.13.13.25.14.28,2.42-4.37.9-9.49,2.38-14.1,2.17-8.34,3.26-16.89,5-25.32.87-4.22,1.63-8.39,3.5-12.41,1.96-4.21,1.22-9.12,2.08-13.67.31-1.64-.25-3.77,2.19-4.33.68.57,1.36,1.14,2.04,1.71h.02c-.48,4.46,2.3,8.03,4.39,11.14,4.16,6.19,2.95,11.52.32,17.58-6.58,15.16-12.83,30.46-19.21,45.71-.06.14-.13.28-.21.42-.88,1.41-1,3.93-2.74,4.02-.03,0-.07,0-.1,0-1.85,0-1.8-2.52-2.35-3.9-7.18-17.92-14.22-35.9-21.38-53.83-.68-1.69-.37-2.83.53-4.28,2.53-4.07,4.74-8.35,7.34-12.37.99-1.53,1.12-3.15,1.59-4.74.34-.47.68-.93,1.02-1.4.52-.29.91-.42,1.21-.42M179.84,50.56c-.85,0-1.73.26-2.69.81-.37.21-.7.5-.95.85l-.5.69-.52.71c-.2.28-.35.58-.45.91-.16.53-.27,1.03-.39,1.52-.23,1-.42,1.78-.84,2.44-1.48,2.28-2.83,4.65-4.14,6.93-1.04,1.82-2.12,3.7-3.23,5.48-1.01,1.63-2.01,3.89-.77,6.98,3.29,8.25,6.62,16.65,9.83,24.78,3.77,9.53,7.67,19.38,11.54,29.05.06.14.14.51.21.81.32,1.36,1.18,4.98,4.92,4.98.08,0,.16,0,.24,0,3.19-.17,4.24-3.05,4.74-4.43.13-.37.3-.82.41-1,.02-.03.04-.07.06-.1.14-.24.26-.48.36-.73,1.8-4.29,3.57-8.57,5.35-12.84,4.49-10.8,9.13-21.96,13.86-32.86,2.68-6.18,4.47-12.93-.58-20.45-.19-.28-.38-.57-.58-.86-1.79-2.62-3.63-5.32-3.32-8.28.01-.11.02-.22.02-.33,0-1.01-.5-1.91-1.27-2.45l-.61-.51-1.25-1.05c-.55-.46-1.23-.7-1.93-.7-.22,0-.45.03-.67.08-4.07.93-4.3,4.54-4.39,5.9-.02.31-.04.61-.08.8-.36,1.88-.46,3.75-.56,5.56-.15,2.72-.3,5.28-1.29,7.41-1.87,4.02-2.7,8.11-3.51,12.06l-.21,1.01c-.66,3.21-1.24,6.46-1.79,9.61-.54,3.06-1.09,6.19-1.73,9.29-.39-.32-.82-.58-1.31-.77-.07-.74-.16-1.47-.25-2.19l-.04-.31c-1.54-12.09-3.65-23.1-6.45-33.64-.33-1.24-.33-2.68-.34-4.2,0-2.02,0-4.31-.81-6.62-.02-.06-.06-.26-.09-.4-.69-3.25-2.57-3.93-4.02-3.93h0Z"/>
  </g>
  <g>
    <path class="cls-3" d="M195.35,111.3c-.38,0-.83-.14-1.11-.4-1.78-1.66-1.74-3.85-1.71-5.45.02-1.33.02-2.67,0-4.01-.1,1.11-.38,2.26-1.16,3.33l-.07,1.14c-.07,1.14-.14,2.28-.2,3.41-.04.71-.57,1.3-1.27,1.4l-.66.1c-.08.01-.15.02-.23.02-.72,0-1.36-.52-1.48-1.25-.38-2.29-.78-4.58-1.18-6.86-.88-5.03-1.8-10.23-2.46-15.39-.49-3.85-1.46-7.74-2.4-11.49-1.62-6.48-3.29-13.19-2.72-20.26,0-.04,0-.08,0-.11-.54-.02-1.08-.32-1.33-.79-.28-.53-.3-1.18.08-1.65.15-.19.31-.37.46-.56.82-.96,1.24-1.5,1.12-2.27-.12-.78.4-1.52,1.17-1.69.1-.02.21-.03.31-.03.66,0,1.26.44,1.44,1.1,1.83,6.57,4.24,8.72,10.32,9.21.48.04.94.06,1.4.06,5.01,0,8.66-2.25,10.55-6.5.24-.54.78-.89,1.37-.89.01,0,.03,0,.04,0,1.51.04,2.54.63,3.06,1.75.12.22.18.46.18.71,0,.55-.3,1.05-.75,1.31-.09.14-.1.51-.11.73,0,.19-.01.37-.03.56-.78,9.93-3.16,19.66-5.47,29.06-1.91,7.79-3.89,15.85-4.92,23.91-.04.73-.47,1.55-1.34,1.74-.22.06-.47.07-.64.07h-.29ZM192.93,74.34c-.21,1.53-.35,3.04-.35,4.58,0,0,0,7.51.01,8.48.11-1.94.3-3.88.61-5.81.38-2.44.17-4.83-.27-7.25Z"/>
    <path class="cls-11" d="M180.53,49.98c2.01,7.2,4.91,9.76,11.64,10.3.52.04,1.03.06,1.52.06,5.58,0,9.8-2.61,11.92-7.39.76.02,1.45.17,1.77.97-.98.58-.8,1.59-.87,2.48-1.41,18.06-8.13,35.07-10.39,52.97,0,.15-.08.38-.17.4-.1.03-.2.03-.31.03-.1,0-.2,0-.29,0-.03,0-.06,0-.09,0-1.28-1.19-1.26-2.8-1.23-4.32.13-7.89-.59-15.8.65-23.66.83-5.3-.91-10.31-2.03-15.44-.53,4.21-1.58,8.3-1.57,12.54,0,6.51.04,13.01-.02,19.52-.02,1.98.33,4.07-1.15,5.77-.1,1.67-.21,3.35-.3,5.03l-.66.1c-1.23-7.4-2.68-14.76-3.64-22.2-1.35-10.54-5.98-20.54-5.11-31.44.07-.91-.25-1.74-1.36-1.74-.07,0-.14,0-.21,0,.95-1.18,2.16-2.24,1.9-3.99M207.39,53.92h0,0M207.39,53.92v.02s0-.01,0-.02c0,0,0,0,0,0M180.53,46.98c-.21,0-.42.02-.63.07-1.55.33-2.58,1.81-2.34,3.38,0,.02,0,.03,0,.03-.05.18-.51.72-.78,1.05-.17.19-.33.39-.49.59-.75.94-.88,2.23-.31,3.29.27.51.68.92,1.16,1.19-.34,6.89,1.27,13.36,2.83,19.63.97,3.89,1.88,7.55,2.36,11.32.67,5.2,1.59,10.41,2.47,15.45.4,2.28.8,4.57,1.18,6.86.24,1.47,1.51,2.51,2.96,2.51.15,0,.3-.01.45-.03l.66-.1c.91-.14,1.68-.68,2.13-1.43.27.42.61.83,1.03,1.22.56.52,1.29.8,2.04.8.04,0,.09,0,.13,0h.02c.08,0,.16,0,.23,0,.38,0,.73-.04,1.06-.13,1.35-.35,2.31-1.57,2.41-3.05,1.01-7.96,2.98-15.96,4.88-23.69,2.32-9.46,4.73-19.25,5.51-29.3.02-.19.02-.4.03-.6.54-.54.86-1.29.86-2.1,0-.43-.09-.85-.26-1.23-.53-1.24-1.72-2.69-4.44-2.76-.03,0-.05,0-.08,0-1.18,0-2.26.7-2.74,1.78-2.06,4.64-6.12,5.61-9.18,5.61-.42,0-.85-.02-1.28-.05-5.08-.41-7.2-1.69-8.99-8.12-.37-1.32-1.57-2.19-2.89-2.19h0Z"/>
  </g>
  <g>
    <path class="cls-9" d="M58.12,128.23c-.49,0-1.42-.16-2.09-1.25-.09-.15-.16-.31-.19-.48-.9-4.21-.13-8.22.61-12.1.28-1.44.56-2.94.75-4.38.35-2.78.69-5.57,1.04-8.36.58-4.72,1.16-9.44,1.77-14.16,0-.06.02-.12.03-.18.77-3.03,1.11-6.23,1.43-9.33.13-1.27.27-2.55.43-3.82.44-2.57.64-5.19.84-7.71.15-1.94.31-3.94.57-5.92.31-2.45.77-4.81,2.84-6.68.28-.26.64-.39,1-.39.32,0,.64.1.91.31,1.2.93,2.41,1.85,3.62,2.77l2.1,1.6c.09.07.18.15.25.24,1.24,1.19,1.79,2.7,2.27,4.04.52,1.42.97,2.65,2.11,3.44,2.36,1.63,1.33,4.52.72,6.25l-1.89,5.36c-3.5,9.95-7,19.89-10.47,29.86-1.59,4.58-3.16,9.25-4.69,13.76-.67,1.99-1.34,3.97-2.01,5.96-.12.36-.38.67-.72.85-.42.22-.84.33-1.26.33Z"/>
    <path class="cls-11" d="M67.16,54.97c1.9,1.46,3.81,2.91,5.72,4.37h-.01c2.33,2.09,1.85,5.79,4.7,7.76,1.49,1.03.65,3.12.07,4.77-4.1,11.65-8.21,23.3-12.27,34.97-2.28,6.56-4.47,13.15-6.7,19.73-.2.11-.39.16-.56.16-.32,0-.59-.18-.81-.54-1.16-5.45.71-10.69,1.38-15.98.94-7.5,1.84-15.01,2.81-22.52,1.11-4.37,1.33-8.88,1.9-13.33.77-4.51.82-9.09,1.41-13.63.28-2.19.65-4.22,2.36-5.76M67.16,51.97c-.72,0-1.44.26-2.01.77-2.46,2.21-2.99,4.97-3.33,7.61-.26,2.01-.42,4.03-.57,5.99-.21,2.61-.4,5.07-.82,7.52,0,.04-.01.08-.02.12-.17,1.29-.3,2.59-.44,3.85-.34,3.19-.65,6.2-1.4,9.12-.03.12-.05.23-.07.35-.61,4.73-1.2,9.54-1.78,14.19-.34,2.78-.69,5.56-1.03,8.34-.18,1.4-.45,2.8-.73,4.29-.77,4.02-1.57,8.19-.61,12.69.07.34.2.66.38.95.77,1.25,2,1.96,3.36,1.96.66,0,1.32-.17,1.96-.5.68-.36,1.2-.96,1.44-1.69.67-1.99,1.35-3.98,2.02-5.97,1.52-4.51,3.09-9.17,4.68-13.73,3.45-9.93,7-20,10.43-29.75l1.83-5.21.09-.25c.61-1.71,2.02-5.7-1.28-7.99-.71-.49-1.04-1.31-1.55-2.72-.51-1.4-1.14-3.13-2.59-4.55-.13-.15-.28-.29-.44-.41l-2.08-1.59c-1.21-.93-2.43-1.85-3.63-2.78-.54-.42-1.18-.62-1.83-.62h0Z"/>
  </g>
  <g>
    <path class="cls-1" d="M57.69,130.42c-1.32,0-2.12-1.27-2.68-2.38-1.57-3.12-2.91-6.41-4.2-9.58-.54-1.33-1.09-2.67-1.65-3.99l-3.54-8.32c-4.27-10.05-8.68-20.43-13.12-30.6-.81-1.85-2.02-4.61.88-7.18-.63-.47-1.71-1.4-1.27-2.86.13-.44.46-.79.88-.96,2.91-1.16,5.06-3.34,7.34-5.64.81-.82,1.64-1.66,2.52-2.46.28-.26.64-.39,1.01-.39.19,0,.38.04.57.11.54.22.9.73.93,1.31l.04.67c1.97,2.95,2.39,6.21,2.81,9.36.21,1.63.41,3.17.82,4.64,0,.03.02.07.02.1.41,2.03.69,4.1.96,6.09.54,3.95,1.05,7.67,2.43,11.26.04.11.07.23.09.34,1.28,9.8,2.76,17.63,4.67,24.64.48,1.74.64,3.51.81,5.21.18,1.86.34,3.64.9,5.3.33.05.63.2.86.44.31.32.46.77.41,1.21-.1.91-.42,3.69-2.48,3.69Z"/>
    <path class="cls-11" d="M43.86,57.54c.02.36.04.72.06,1.09,2.99,4.16,2.39,9.27,3.65,13.89,1.17,5.86,1.29,11.93,3.46,17.6,1.09,8.37,2.49,16.69,4.71,24.84,1.05,3.84.5,7.95,2.14,11.67v-.02c.27-.01.53-.03.79-.05-.14,1.2-.43,2.36-.99,2.36-.34,0-.78-.43-1.33-1.55-2.19-4.36-3.9-8.98-5.81-13.49-5.53-12.99-11.02-26-16.66-38.94-.97-2.22-1.45-3.9.74-5.67,2.12-1.71-1.49-1.96-1.07-3.34,4.31-1.72,7.03-5.39,10.31-8.39M43.86,54.54c-.74,0-1.46.27-2.02.79-.9.82-1.75,1.68-2.57,2.51-2.16,2.19-4.21,4.26-6.83,5.3-.85.34-1.49,1.04-1.76,1.91-.37,1.21-.16,2.33.62,3.34-2.25,2.98-.88,6.11-.17,7.74,4.43,10.17,8.85,20.57,13.13,30.63,1.17,2.76,2.35,5.52,3.52,8.28.56,1.31,1.1,2.64,1.64,3.96,1.31,3.2,2.66,6.52,4.25,9.7.44.87,1.6,3.2,4.02,3.2,1.55,0,3.5-.87,3.97-5.02.1-.89-.2-1.78-.82-2.42-.21-.22-.45-.4-.71-.55-.35-1.33-.49-2.79-.63-4.3-.17-1.77-.34-3.59-.85-5.46-1.89-6.94-3.36-14.71-4.63-24.44-.03-.23-.09-.46-.17-.68-1.31-3.43-1.81-7.07-2.34-10.93-.28-2.02-.56-4.11-.98-6.19-.01-.07-.03-.14-.05-.2-.38-1.38-.57-2.87-.78-4.44-.4-3.06-.85-6.49-2.82-9.64v-.27c-.08-1.16-.8-2.17-1.88-2.61-.37-.15-.75-.22-1.13-.22h0Z"/>
  </g>
  <g>
    <path class="cls-7" d="M64.43,76.13c-.21,0-.41-.04-.6-.13-1.24-.55-2.45-1.16-3.62-1.76-.46-.23-.92-.47-1.38-.7-.15-.07-.28-.17-.4-.29-1.16-1.19-2.21-1.82-3.02-1.82s-1.64.66-2.49,1.97c-.16.25-.39.44-.66.56l-.38.17c-.95.42-2.04.91-3.23.91s-2.17-.43-3.08-1.29c-.2-.19-.35-.43-.42-.7-1.01-2.94-1.44-5.97-1.85-8.9-.24-1.72-.49-3.51-.86-5.21-.13-.62.14-1.26.67-1.59.24-.15.52-.23.79-.23.33,0,.66.11.93.33.97.77,1.9,1.58,2.8,2.37,1.84,1.61,3.58,3.12,5.6,4.29.49.28,1.24.71,1.67.71.08,0,.27,0,.61-.34.43-.44.87-.88,1.31-1.32,3.63-3.64,7.06-7.08,8.81-11.78.22-.59.79-.98,1.4-.98.08,0,.16,0,.25.02.71.12,1.23.72,1.25,1.44l.1,3.09c0,.08,0,.17-.01.25l-2.71,19.64c-.06.47-.34.88-.75,1.11-.23.13-.48.19-.73.19Z"/>
    <path class="cls-11" d="M67.04,51.9c.03,1.03.07,2.05.1,3.09-.9,6.55-1.81,13.09-2.71,19.64-1.68-.74-3.29-1.61-4.93-2.43-1.4-1.43-2.76-2.27-4.09-2.27-1.3,0-2.55.81-3.75,2.66-1,.44-2.01.95-3.02.95-.68,0-1.36-.23-2.05-.88h0c-1.58-4.55-1.69-9.38-2.69-14.03,2.86,2.27,5.38,4.94,8.58,6.78.85.48,1.64.91,2.42.91.56,0,1.11-.22,1.68-.79,4.04-4.1,8.37-8.02,10.46-13.63M67.04,48.9c-1.23,0-2.37.76-2.81,1.95-1.64,4.4-4.96,7.73-8.47,11.25-.36.36-.72.72-1.08,1.09-.25-.13-.56-.3-.7-.38-1.89-1.09-3.57-2.56-5.35-4.11-.91-.8-1.86-1.62-2.85-2.41-.54-.43-1.2-.65-1.87-.65-.55,0-1.1.15-1.58.45-1.08.67-1.62,1.94-1.35,3.18.35,1.65.59,3.33.84,5.1.42,3.01.86,6.12,1.92,9.2.15.49.43.93.8,1.28,1.2,1.13,2.58,1.7,4.11,1.7s2.8-.57,3.84-1.03l.37-.16c.54-.24,1-.62,1.32-1.12.69-1.06,1.15-1.29,1.23-1.29,0,0,.62.02,1.94,1.37.23.24.5.44.8.58.46.23.91.46,1.36.69,1.19.61,2.42,1.24,3.7,1.8.39.17.8.25,1.21.25.51,0,1.01-.13,1.46-.38.82-.46,1.38-1.28,1.51-2.21.45-3.27.9-6.55,1.35-9.82.45-3.27.91-6.55,1.36-9.82.02-.16.03-.33.03-.49-.02-.53-.03-1.06-.05-1.59-.02-.5-.03-1-.05-1.5-.04-1.43-1.09-2.64-2.51-2.87-.16-.03-.33-.04-.49-.04h0Z"/>
  </g>
  <g>
    <g>
      <path class="cls-2" d="M209.44,57.14c-.83,0-1.51-.67-1.51-1.5s.66-1.5,1.49-1.5,1.52.67,1.52,1.5-.66,1.5-1.48,1.5h-.01Z"/>
      <path class="cls-11" d="M209.45,55.64h-.03.03M209.45,52.64h-.03c-1.66,0-3,1.34-3,3s1.34,3,3,3,3.01-1.34,3.01-3-1.33-3-2.99-3h0Z"/>
    </g>
    <g>
      <path class="cls-2" d="M209.46,57.15c-.19,0-.39-.04-.57-.11-.56-.23-.93-.77-.93-1.38h0c0-.84.67-1.51,1.5-1.51.61,0,1.16.37,1.39.93.23.56.11,1.21-.32,1.63-.29.29-.68.44-1.07.44Z"/>
      <path class="cls-11" d="M209.47,55.64h0M209.47,55.64h0s0,0,0,0h0M209.48,52.64h-.01c-1.66,0-3,1.34-3,3,0,1.21.73,2.31,1.85,2.78.37.15.76.23,1.15.23.73,0,1.45-.27,2-.77.62-.55,1-1.35,1-2.24,0-1.66-1.34-3-3-3h0ZM209.47,58.64h0,0Z"/>
    </g>
    <path class="cls-13" d="M191.48,205.88c.09,3.11.23,6.21.27,9.31.65,48.16-2.34,96.41,3.49,144.45.35,2.91,4.06,5.48,6.19,3.65,3.46-2.98,3.88.72,5.07,1.97.84.89.82,2.59,2.28,3.26,4.99,2.27,10.09,3.98,15.67,2.89,4.88-.95,5.41-2.16,2.02-5.91-4.25-4.7-8.71-9.2-12.28-14.47-.62-.9-1.41-1.4-1.28-3.06,1.05-14.08,1.47-28.21,2.64-42.28,1.45-17.61-1.55-35.38,2.1-52.91,1.23-5.9,1.78-11.95,2.78-17.91,2.27-13.45,4.01-26.99,7.27-40.26.35-1.43.15-3.44,2.14-3.7,6.45-.86,8.38-5.85,8.91-10.94,1.61-15.53,9.06-30.02,6.75-46.42-.93-6.59-.87-13.78-.84-20.72.07-13.06-2.65-25.89-4.87-38.72-.84-4.83-3.15-8.41-8.31-10.11-7.45-2.45-14.69-5.54-22.02-8.36-2.65.6-1.09,2.31-.65,3.33,1.35,3.13,2.46,6.44,4.36,9.24,3.16,4.67,2.75,9.23.59,14.05-5.64,12.6-10.84,25.38-16.29,38.06-1.69,3.93-2.94,8.08-5.11,11.84-1.75-.79-1.86-2.33-2.32-3.56-4.96-13.2-9.66-26.58-15.65-39.3-4.86-10.34-5.8-19.1,2.13-27.95,1.39-1.55,2.48-3.66,1.13-5.97-6.95,4.36-14.09,8.35-21.92,10.92-5.79,1.89-9.34,5.27-8.7,11.88.08.85-.27,1.81-.63,2.63-2.21,5.01-3.16,10.33-4.07,15.69-1.31,7.64-1.53,15.46-3.66,22.95-3.97,13.93-2.86,27.97.77,41.55,1.56,5.83,3.15,11.57,3.9,17.53.34,2.7,1.2,4.72,4.13,5.41,3.24.76,4.39,2.97,4.13,6.23-.35,4.34-.63,8.68-.68,13.02-.24,19.39-1.87,38.7-1.65,58.14.16,15.08-2.57,30.22-2.57,45.48,0,14.08-1.44,28.11-3.25,42.15-.86,6.7-3.83,9.57-8.63,12.37-3.34,1.94-6.59,4.03-9.85,6.1-1.26.8-1.87,1.88-1.62,3.53.28,1.81,1.61,2.25,2.93,2.42,8.03,1.04,15.94,1.8,23.01-3.9,2.29-1.83,5.16-3.62,8.86-1.46,3.02,1.78,7.22-.02,7.52-2.43.73-5.91,1.66-11.69,3.47-17.46,3.05-9.7,2.16-19.99,2.85-30.03,1.1-16.05.59-32.2,4.62-48.02,5.47-21.48,10.05-43.16,13.34-65.1.53-.53.6-1.27.83-1.93M159.76,149.25c-6.16-11.87-1.03-23.12,1.29-34.52,1.59,11.57.83,23.04-1.29,34.52ZM224.56,148.96c-1.46-11.26-2.63-22.29-.37-33.45,2.65,11,5.7,22.07.37,33.45Z"/>
  </g>
  <g>
    <path class="cls-10" d="M210.45,102.82c-.66,0-1.25-.44-1.44-1.07s.06-1.32.62-1.68l2.04-1.33c.96-.63,1.72-1.12,2.47-1.61,1.28-.82,2.44-1.22,3.53-1.22,1.62,0,3.76.88,4.78,5.06.11.45,0,.92-.28,1.28-.28.36-.72.57-1.18.57h-10.55Z"/>
    <path class="cls-11" d="M217.68,97.41c1.58,0,2.69,1.31,3.33,3.92h-10.55c2.09-1.36,3.29-2.16,4.5-2.93,1.03-.66,1.93-.99,2.72-.99M217.68,94.41h0c-1.39,0-2.81.48-4.35,1.46-.74.47-1.49.96-2.45,1.59-.59.39-1.26.83-2.06,1.35-1.11.72-1.62,2.09-1.24,3.37.38,1.27,1.55,2.15,2.88,2.15h10.55c.92,0,1.79-.42,2.36-1.15.57-.72.77-1.67.55-2.57-1.32-5.4-4.48-6.2-6.24-6.2h0Z"/>
  </g>
  <g>
    <path class="cls-2" d="M102.78,375.26c-10.11-.05-14.89-3.81-17.65-13.85-.04-.16-.08-.33-.12-.5-.03-.15-.08-.35-.12-.47-7.9-3.14-7.18-9.39-6.55-14.9.08-.7.16-1.4.23-2.1.81-8.7,1.42-20.16-1.13-31.67-2.08-9.41-2.41-19.56-1.07-32.9,1.06-10.46-1.38-20.78-3.75-29.63-1.35-5.04-2.85-10.15-4.31-15.08-2.25-7.64-4.58-15.54-6.41-23.46l-.08-.36c-.23-.98-.45-1.94-.79-2.87-.78,3.12-1.03,6.3-1.28,9.4-.07.91-.14,1.81-.23,2.71-1.04,11.15-1.9,22.52-2.73,33.52-.28,3.64-.55,7.29-.83,10.93-.02.37.12.9.22,1.27,3.07,10.59,4.02,21.94,2.88,34.72-.41,4.57.54,8.86,1.54,13.4.92,4.15,1.87,8.44,1.66,12.94-.1,2.11,0,4.3.09,6.42.17,3.7.34,7.53-.47,11.38-.03.13-.03.45-.02.67,0,.77.01,1.82-.84,2.46-2.35,1.71-3.82,4.28-5.37,7-2.28,3.99-4.63,8.11-9.92,9.83l-.13.04c-1.96.64-3.98,1.3-6,1.3s-3.9-.74-5.37-2.19c-2.78-2.75-3.06-6.78-.8-11.36,1.91-3.9,4.34-7.57,6.69-11.13l.86-1.31c.95-1.45.96-2.62.61-4.87-1.13-7.22-2.7-14.51-4.22-21.56-3.13-14.55-6.37-29.59-6.05-45.1.23-10.88-1.45-21.9-3.07-32.56-.78-5.16-1.59-10.5-2.18-15.77-.34-3-.72-6-1.1-9-.38-3-.77-6-1.11-9.01-.6-5.28-1.73-8.05-6.25-8.55-1.61-.16-2.4-2.29-2.54-2.72-1.28-3.85-2.7-7.74-4.08-11.51-4.81-13.12-9.78-26.69-9.48-41.39.3-14.72,3.89-29.12,7.37-43.05l.52-2.07c.64-2.57,1.32-5.14,2.01-7.7.7-2.63,1.43-5.36,2.09-8.04.89-3.57,2.9-5.87,6.15-7.03,3.35-1.2,6.72-2.5,9.99-3.76l3.36-1.29c.17-.07.35-.1.54-.1.17,0,.33.03.49.08,1.4.48,3.33,1.15,3.82,2.9.48,1.71-.8,3.25-1.23,3.75-.91,1.09-.65,1.97.26,4.01,3.85,8.69,7.57,17.5,11.16,26.03,2.39,5.66,4.86,11.52,7.34,17.26.37.87.59,1.75.8,2.61.21.84.4,1.62.71,2.3,1.51-4.39,2.99-8.8,4.47-13.2,4.06-12.07,8.26-24.56,13-36.62,1.23-3.13.12-5.18-1.29-7.78-.56-1.03-1.13-2.1-1.56-3.27-.02-.03-.17-.19-.26-.3-.47-.53-1.73-1.93-.41-3.79.36-.48.9-.73,1.54-.73.04,0,.14,0,.18,0,.32.02.6.13.79.22,2.1.38,4.21.77,6.31,1.16,5.63,1.04,11.45,2.12,17.17,3.06,3.28.53,5.23,2.24,6.3,5.52,5.42,16.65,11.36,36.44,14.33,56.97,1.74,12.06-1.19,23.95-4.61,35.01-.65,2.08-1.25,4.17-1.86,6.26-1.1,3.81-2.24,7.75-3.63,11.56-.16.44-.26,1-.36,1.6-.39,2.22-.98,5.57-6,5.93-.75.07-2.96,3.05-2.84,6.45.32,8.81.53,17.76.74,26.42.44,18.79.89,38.22,2.56,57.27.85,9.76.78,19.68.7,29.27-.05,5.86-.09,11.92.07,17.86l.06,1.85c.2,6.51.41,13.25-1.89,19.86-.66,1.9.44,3.97,1.51,5.97l.18.33c1.77,3.32,3.81,6.6,5.77,9.78l.08.14c1.44,2.33,2.23,4.44,2.49,6.65.35,3.08-.05,5.07-1.28,6.45-1.23,1.38-3.17,1.99-6.27,1.99h-.1ZM27.33,120.87c-.39,1.46-.86,2.88-1.32,4.29-.18.54-.36,1.09-.53,1.63-3.04,9.57-2.85,19.51.59,30.28,3.41-12.61,3.83-24.55,1.26-36.2ZM95.08,125.76c.29,3.77.58,7.48.87,11.17.14-3.49-.15-7.47-.87-11.17Z"/>
    <path class="cls-11" d="M72.36,59.18s.04,0,.06,0c.15.01.29.1.43.17h.02c7.9,1.44,15.79,2.97,23.7,4.26,2.83.46,4.24,1.83,5.12,4.51,6.05,18.59,11.47,37.37,14.27,56.72,1.68,11.63-1.09,23.15-4.56,34.35-1.84,5.92-3.35,11.94-5.46,17.76-.88,2.45-.04,6.18-5.06,6.54h0c-1.94.14-4.37,4.17-4.23,8,1.03,27.92.86,55.88,3.3,83.76,1.37,15.64.33,31.36.77,47.04.2,7.15.67,14.22-1.75,21.17-.92,2.64.56,5.2,1.78,7.5,1.82,3.41,3.87,6.71,5.91,10,1.16,1.87,2.02,3.83,2.27,6.03.57,5.05-.98,6.77-6.06,6.77-.03,0-.06,0-.09,0-9.46-.05-13.62-3.33-16.21-12.75-.2-.73-.21-1.59-1.06-1.93-7.8-3.07-6.02-9.32-5.45-15.5,1-10.73,1.21-21.42-1.16-32.13-2.36-10.67-2.13-21.59-1.04-32.43,1.05-10.38-1.17-20.37-3.79-30.17-3.44-12.86-7.7-25.5-10.7-38.49-.51-2.2-.96-4.48-2.73-6.6-2.04,5.23-2.12,10.54-2.6,15.68-1.38,14.8-2.42,29.65-3.57,44.48-.04.59.11,1.23.28,1.81,3.25,11.2,3.84,22.75,2.83,34.17-.83,9.2,3.61,17.41,3.2,26.4-.27,5.84.88,11.72-.35,17.56-.16.75.11,1.94-.3,2.25-6.13,4.47-6.64,13.93-14.85,16.6-1.91.63-3.84,1.27-5.67,1.27-1.54,0-3-.46-4.32-1.76-2.77-2.74-2.02-6.57-.51-9.63,2.1-4.28,4.83-8.28,7.46-12.28,1.27-1.94,1.2-3.58.84-5.92-3.47-22.11-10.72-43.56-10.25-66.4.34-16.29-3.45-32.35-5.26-48.53-.68-6.01-1.53-12-2.21-18.01-.55-4.86-1.58-9.21-7.58-9.87-.49-.05-1.06-1.04-1.28-1.7-5.69-17.18-13.87-33.78-13.49-52.39.31-15.27,4.17-30.05,7.84-44.79,1.31-5.26,2.8-10.48,4.1-15.74.73-2.94,2.3-4.94,5.2-5.98,4.49-1.61,8.93-3.36,13.38-5.06,2.15.74,4.18,1.58,1.93,4.28-1.61,1.94-.76,3.78.07,5.65,6.34,14.32,12.26,28.82,18.46,43.2,1,2.34.81,5.26,3.15,6.98,0,0,.01,0,.03,0,.08,0,.27-.12.35-.22.1-.11.16-.26.24-.42,5.92-17.15,11.35-34.45,17.98-51.31,2.04-5.2-1.42-8.22-2.83-12.11-.33-.9-1.78-1.41-.86-2.71.05-.07.19-.09.31-.09M26.2,161.91c5.19-16.15,5.94-32.31.62-48.55.18,4.6-1.43,8.76-2.77,12.98-3.84,12.1-2.41,23.91,2.15,35.57M95.19,146.36c3.86-5.41,2.66-23.68-2.43-31.05.84,10.75,1.63,20.93,2.43,31.05M72.36,56.18c-1.11,0-2.09.47-2.71,1.29-.02.02-.03.04-.05.07-.75,1.06-1.68,3.2.52,5.65.02.02.04.05.07.07.44,1.16,1.01,2.2,1.55,3.21,1.44,2.66,2.14,4.16,1.21,6.52-4.76,12.1-8.96,24.61-13.03,36.7-.97,2.87-1.95,5.8-2.95,8.74-.07-.19-.14-.38-.22-.56-2.48-5.75-4.95-11.61-7.35-17.28-3.6-8.52-7.32-17.34-11.13-25.95l-.03-.08c-.87-1.96-.77-2.08-.47-2.44,1.46-1.75,1.97-3.47,1.51-5.11-.7-2.52-3.25-3.4-4.78-3.92-.32-.11-.65-.16-.98-.16-.36,0-.73.07-1.07.2-1.13.43-2.25.86-3.38,1.3-3.25,1.25-6.62,2.55-9.94,3.74-3.71,1.33-6.1,4.05-7.1,8.08-.66,2.67-1.39,5.39-2.09,8.02-.67,2.52-1.37,5.13-2.01,7.72l-.52,2.07C3.93,108.05.32,122.54.01,137.43c-.31,14.98,4.72,28.68,9.58,41.93,1.38,3.75,2.8,7.64,4.07,11.46.27.82,1.35,3.49,3.82,3.74,3.28.36,4.3,1.85,4.9,7.22.34,3.03.73,6.09,1.11,9.05.37,2.94.76,5.98,1.1,8.96.59,5.3,1.41,10.65,2.19,15.83,1.61,10.6,3.27,21.55,3.05,32.31-.32,15.69,2.93,30.82,6.08,45.45,1.51,7.03,3.08,14.3,4.2,21.48.33,2.12.25,2.83-.39,3.81l-.86,1.3c-2.37,3.6-4.83,7.32-6.78,11.3-2.53,5.12-2.13,9.89,1.09,13.08,1.76,1.74,3.92,2.63,6.43,2.63,2.26,0,4.4-.7,6.47-1.37l.14-.04c5.84-1.9,8.45-6.48,10.76-10.52,1.47-2.57,2.86-5,4.93-6.51.01-.01.03-.02.04-.03,1.45-1.1,1.44-2.77,1.43-3.67,0-.13,0-.32,0-.4.84-4.02.66-7.92.49-11.7-.1-2.18-.19-4.24-.09-6.29.21-4.69-.76-9.09-1.7-13.33-.98-4.42-1.9-8.6-1.51-12.94,1.15-12.97.19-24.51-2.94-35.28-.16-.54-.17-.73-.17-.78.28-3.6.55-7.23.83-10.87.83-11,1.69-22.38,2.73-33.53.08-.91.16-1.82.23-2.73.05-.65.1-1.29.16-1.93,1.65,6.61,3.58,13.16,5.46,19.53,1.45,4.93,2.95,10.02,4.3,15.05,2.33,8.73,4.74,18.89,3.7,29.09-1.36,13.52-1.02,23.81,1.1,33.38,2.5,11.3,1.9,22.61,1.1,31.2-.06.69-.14,1.39-.22,2.07-.61,5.29-1.43,12.48,6.76,16.16.02.09.04.18.07.27,2.94,10.71,8.3,14.9,19.09,14.96h.1c2.4,0,5.41-.28,7.39-2.49,1.98-2.21,1.92-5.23,1.66-7.61-.28-2.44-1.14-4.75-2.7-7.28l-.08-.13c-1.96-3.16-3.98-6.42-5.73-9.71l-.17-.33c-1.13-2.11-1.83-3.59-1.42-4.77,2.39-6.88,2.18-13.75,1.97-20.4-.02-.61-.04-1.23-.06-1.84-.17-5.91-.12-11.96-.07-17.8.08-9.63.15-19.59-.71-29.42-1.66-19-2.12-38.41-2.55-57.18-.2-8.66-.41-17.62-.74-26.43-.08-2.22,1.12-4.37,1.77-4.92,5.9-.58,6.67-4.99,7.05-7.14.09-.53.18-1.03.3-1.35,1.4-3.85,2.54-7.81,3.65-11.65.59-2.05,1.21-4.18,1.85-6.24,3.48-11.23,6.45-23.31,4.66-35.67-2.99-20.65-8.95-40.51-14.39-57.22-1.26-3.84-3.64-5.92-7.49-6.54-5.71-.93-11.53-2.01-17.15-3.05-2.04-.38-4.09-.76-6.13-1.13-.29-.12-.68-.25-1.15-.28-.05,0-.15,0-.26,0h0ZM25.98,150.93c-1.78-8.3-1.47-16.12.93-23.68,0,0,0-.01,0-.02,1,7.7.68,15.56-.94,23.7h0Z"/>
  </g>
  <g>
    <path class="cls-5" d="M73.12,102.68c-.66,0-2.25-.24-2.65-2.48-.3-1.68.23-2.77.73-3.4.51-.63,1.48-1.39,3.22-1.46.56-.02,1.13-.04,1.69-.05,2.73-.08,5.31-.15,7.47-.9.16-.06.33-.08.5-.08.03,0,.06,0,.08,0,.26.01.51.02.75.02,1.26,0,3.6.03,3.99,2.75.16,1.08-.03,1.97-.57,2.66-.87,1.11-2.31,1.25-3.36,1.36-3.33.33-6.66.75-9.91,1.25-.18.03-.37.08-.56.12-.42.1-.89.22-1.39.22Z"/>
    <path class="cls-11" d="M84.07,95.81c1.61.09,3.09-.27,3.34,1.48.29,1.97-1.07,2.16-2.59,2.31-3.34.33-6.68.75-9.99,1.26-.58.09-1.2.32-1.72.32-.55,0-1-.26-1.17-1.24-.33-1.84.66-3.02,2.53-3.09,3.37-.13,6.75-.04,9.6-1.04M84.07,92.81c-.34,0-.67.06-.99.17-1.93.68-4.4.75-7.01.82-.57.02-1.14.03-1.71.05-1.8.07-3.33.78-4.33,2.02-.98,1.22-1.35,2.86-1.04,4.6.49,2.74,2.45,3.71,4.13,3.71.68,0,1.27-.14,1.74-.26.15-.04.3-.08.44-.1,3.21-.5,6.52-.91,9.82-1.24,1.17-.12,3.13-.31,4.4-1.93.55-.7,1.14-1.93.87-3.81-.57-3.99-4.25-4.01-5.46-4.02-.22,0-.45,0-.68-.02-.06,0-.11,0-.17,0h0Z"/>
  </g>
  <g>
    <path class="cls-12" d="M191.96,129.32c-.26,0-.53-.07-.76-.21-.37-.22-.64-.59-.72-1.02-.21-1.09-.48-2.19-.74-3.26-.84-3.43-1.72-6.98-.74-11.06.82-3.4.68-6.37-.39-8.84-.12-.21-.2-.46-.2-.73l-.06-7.04c-.06-7.12-.13-14.25-.23-21.38-.02-1.34.35-2.54.7-3.71.61-2.03.93-3.36-.05-4.9-.27-.42-.6-1.3.09-2.54.71-1.29,2.37-2.66,4.06-2.66.03,0,.15,0,.18,0,1.86.11,3.95,2.11,3.86,4.52-.12,3.45.03,6.99.19,10.42.19,4.38.39,8.9.03,13.43-.35,4.48-.36,9.09-.36,13.54,0,1.97,0,3.95-.03,5.92.25,4.79-.35,10.04-1.88,16.41l-.05.2c-.17.76-.49,2.17-2.42,2.82-.16.05-.32.08-.48.08Z"/>
    <path class="cls-11" d="M192.92,63.48s.06,0,.09,0c1.03.06,2.51,1.38,2.45,2.97-.28,7.93.86,15.82.22,23.78-.51,6.49-.3,13.03-.4,19.56.28,5.47-.57,10.8-1.84,16.08-.18.74-.23,1.53-1.48,1.95-.86-4.56-2.68-8.74-1.49-13.69.75-3.12.92-6.7-.54-9.93h-.01c-.09-9.47-.16-18.95-.29-28.43-.04-3.11,2.59-5.99.41-9.4-.5-.79,1.37-2.89,2.88-2.89M192.92,60.48c-2.28,0-4.43,1.73-5.37,3.43-.77,1.4-.79,2.88-.05,4.06.62.97.47,1.74-.11,3.68-.37,1.22-.78,2.6-.76,4.16.1,7.1.16,14.31.22,21.29l.07,7.13c0,.5.13.98.36,1.39.91,2.15,1,4.77.27,7.81-1.07,4.43-.11,8.33.74,11.77.27,1.09.52,2.13.72,3.18.16.85.68,1.59,1.43,2.03.47.27.99.41,1.52.41.32,0,.64-.05.96-.16,2.73-.92,3.22-3.1,3.4-3.92l.04-.17c1.56-6.48,2.17-11.83,1.93-16.84.03-1.95.03-3.93.03-5.84,0-4.43,0-9.01.36-13.43.37-4.61.17-9.18-.03-13.61-.15-3.39-.31-6.9-.19-10.3.12-3.29-2.68-5.92-5.27-6.07-.09,0-.18,0-.27,0h0Z"/>
  </g>
  <g>
    <path class="cls-6" d="M57.87,128.11c-.45,0-.89-.21-1.18-.58-2.58-3.32-3.12-7.12-3.65-10.79-.29-2.01-.56-3.91-1.15-5.72-.93-2.85-1.46-5.82-1.96-8.69-.38-2.17-.78-4.42-1.35-6.54-.36-1.34-.04-2.48.21-3.4.22-.79.33-1.24.17-1.66-1.64-2.85-1.08-5.77-.31-8.26.99-3.28,1.39-6.44,1.21-9.63-.01-.06-.02-.13-.03-.19-.43-3.45,2.33-5.56,4.45-5.95.32-.06.64-.09.96-.09,2.44,0,4.7,1.67,5.9,4.36.11.24.15.5.12.77-.25,2.45.49,4.81,1.28,7.31.84,2.67,1.71,5.42,1.41,8.48-.22,8.61-1.55,17.18-2.83,25.47-.47,3.03-.96,6.16-1.38,9.24-.13.96-.2,1.92-.27,2.94-.04.52-.07,1.04-.11,1.56-.05.61-.48,1.13-1.07,1.31-.14.04-.28.06-.43.06Z"/>
    <path class="cls-11" d="M55.24,68.12c1.9,0,3.62,1.44,4.53,3.47-.57,5.53,3.26,10.31,2.69,15.85-.29,11.67-2.62,23.09-4.2,34.6-.21,1.51-.26,3.05-.39,4.57-3.67-4.71-2.82-10.74-4.55-16.05-1.6-4.89-1.96-10.16-3.29-15.15-.53-1.99,1.08-3.55.27-5.35-1.38-2.33-.94-4.81-.22-7.14,1.03-3.41,1.49-6.85,1.26-10.4h-.02c-.34-2.52,1.72-4.06,3.23-4.34.23-.04.46-.06.69-.06M55.24,65.12h0c-.41,0-.83.04-1.24.11-3.2.59-6.18,3.6-5.66,7.63,0,.06.01.11.02.17.16,2.98-.22,5.93-1.16,9.02-.79,2.56-1.46,5.9.32,9.19-.03.18-.11.5-.18.75-.27.98-.67,2.46-.21,4.19.55,2.06.92,4.18,1.32,6.42.52,2.92,1.05,5.95,2.02,8.89.55,1.68.81,3.51,1.08,5.46.53,3.69,1.12,7.87,3.95,11.5.58.74,1.46,1.16,2.37,1.16.28,0,.57-.04.85-.12,1.18-.35,2.03-1.39,2.14-2.62.04-.53.08-1.05.12-1.58.07-.99.13-1.93.26-2.83.42-3.07.91-6.2,1.38-9.22,1.29-8.32,2.62-16.92,2.85-25.61.31-3.34-.64-6.36-1.48-9.02-.74-2.35-1.44-4.56-1.22-6.71.05-.52-.03-1.05-.25-1.53-1.45-3.24-4.23-5.25-7.27-5.25h0Z"/>
  </g>
  <g>
    <path class="cls-8" d="M62.45,88.95c-.29,0-.59-.09-.85-.26-.32-.22-.53-.54-.61-.9-.23-.66-.44-1.33-.65-2.01-.49-1.58-.96-3.07-1.69-4.37-1.94-3.45-2.01-6.87-.23-10.48.26-.52.79-.83,1.34-.83.16,0,.32.02.47.08.33.11.71.19,1.12.28,1.59.34,4,.85,4.56,3.9.02.13.03.27.02.4-.09,1-.13,2-.18,3-.16,3.38-.33,6.88-1.9,10.24-.07.18-.17.34-.31.49-.29.31-.69.47-1.09.47Z"/>
    <path class="cls-11" d="M59.76,71.6c1.81.6,4.19.36,4.68,3.02-.37,4.31-.04,8.74-1.98,12.81-.81-2.27-1.34-4.71-2.51-6.76-1.75-3.11-1.7-6.02-.19-9.07M62.46,87.44s0,0,0,0h-.01s0,0,0,0M59.76,68.6c-1.11,0-2.17.62-2.69,1.67-1.99,4.03-1.9,8.02.26,11.87.66,1.16,1.1,2.58,1.57,4.08.2.64.4,1.3.63,1.96.17.67.57,1.29,1.17,1.72.52.37,1.13.55,1.73.55.77,0,1.54-.3,2.12-.87.27-.27.48-.58.63-.92,1.71-3.64,1.89-7.3,2.05-10.83.05-1.02.09-1.98.18-2.94.02-.27,0-.54-.04-.8-.74-4.04-4.11-4.75-5.73-5.09-.37-.08-.71-.15-.96-.23-.31-.1-.63-.15-.94-.15h0Z"/>
  </g>
  <g>
    <path class="cls-4" d="M50.3,91.54c-.1,0-.19,0-.29-.03-2.71-.54-2.78-2.8-2.81-3.88,0-.23,0-.47-.04-.68-.47-3.12-.92-6.25-1.37-9.38-.22-1.57-.45-3.14-.68-4.71-.07-.49.11-.99.47-1.32.28-.25.64-.39,1.01-.39.12,0,.23.01.35.04.07.02.15.03.25.03h0c.31,0,.69-.1,1.1-.2.54-.14,1.16-.29,1.84-.29s1.32.16,1.9.48c.15.08.29.19.4.32,2.35,2.62,2.72,5.64,1.14,9.25-1.4,3.19-1.98,6.2-1.78,9.18.03.47-.15.92-.5,1.23-.28.24-.63.37-.99.37Z"/>
    <path class="cls-11" d="M50.14,72.22c.39,0,.78.08,1.18.29,2.1,2.34,2.12,4.82.88,7.64-1.37,3.12-2.14,6.42-1.9,9.89-1.97-.39-1.47-2.07-1.66-3.32-.71-4.69-1.36-9.39-2.04-14.08.2.05.4.07.6.07.98,0,1.96-.49,2.94-.49M50.14,69.22c-.86,0-1.61.19-2.2.34-.23.06-.56.14-.71.15-.21-.04-.42-.07-.63-.07-.74,0-1.46.27-2.02.78-.74.67-1.09,1.66-.95,2.65.23,1.59.46,3.17.68,4.76.44,3.06.89,6.23,1.36,9.34.01.09.02.32.03.5.09,3.01,1.44,4.8,4.02,5.31.19.04.39.06.58.06.72,0,1.43-.26,1.98-.75.7-.62,1.07-1.53,1.01-2.46-.19-2.74.35-5.51,1.65-8.48,1.82-4.14,1.35-7.79-1.39-10.85-.23-.25-.5-.47-.8-.63-.8-.44-1.68-.66-2.62-.66h0Z"/>
  </g>
</svg>